<?xml version="1.0" standalone="no"?>
<!DOCTYPE svg PUBLIC "-//W3C//DTD SVG 20010904//EN"
 "http://www.w3.org/TR/2001/REC-SVG-20010904/DTD/svg10.dtd">
<svg version="1.0" xmlns="http://www.w3.org/2000/svg"
 width="400.000000pt"  height="400.000000pt" viewBox="0 0 400.000000 400.000000"
 preserveAspectRatio="xMidYMid meet">

<g transform="translate(0.000000,400.000000) scale(0.100000,-0.100000)">
<path fill="red" stroke="black" stroke-width="50" d="M1908 3945 c-2 -2 -34 -6 -73 -10 -124 -11 -171 -21 -370 -75 -145
-39 -389 -152 -475 -219 -19 -15 -51 -36 -70 -47 -19 -10 -44 -28 -56 -39 -12
-11 -42 -36 -65 -55 -90 -72 -223 -208 -290 -297 -289 -383 -420 -786 -406
-1250 4 -158 12 -219 54 -413 19 -86 17 -79 27 -105 5 -11 24 -63 44 -115 54
-146 154 -332 235 -440 112 -149 249 -290 387 -401 48 -38 233 -159 243 -159
3 0 28 -13 55 -29 27 -16 60 -32 73 -36 13 -4 53 -21 89 -37 79 -36 268 -91
373 -109 l78 -13 136 136 136 136 133 -134 c97 -97 141 -134 158 -134 27 0
221 43 286 64 63 19 183 66 195 75 6 5 21 11 36 14 24 6 169 86 227 125 15 11
47 32 72 48 25 15 52 35 61 44 9 8 29 24 45 35 65 44 303 294 349 366 6 8 36
54 67 101 69 104 157 282 199 403 59 172 109 459 109 634 0 349 -125 772 -308
1043 -26 39 -56 85 -67 103 -11 17 -30 43 -42 56 -11 13 -47 53 -78 89 -61 70
-117 124 -185 180 -23 19 -58 49 -79 65 -133 112 -409 256 -581 305 -25 7 -65
19 -90 28 -122 39 -296 63 -497 67 -73 1 -133 1 -135 0z m358 -185 c112 -20
169 -32 204 -41 72 -18 146 -42 178 -55 85 -37 111 -48 160 -71 62 -29 206
-115 210 -125 2 -5 9 -8 16 -8 7 0 26 -11 42 -25 16 -14 42 -36 58 -48 183
-141 377 -385 480 -602 96 -202 105 -231 144 -435 37 -191 45 -327 28 -485
-25 -224 -64 -391 -123 -525 -51 -114 -131 -264 -160 -300 -7 -8 -25 -34 -40
-57 -68 -101 -243 -283 -348 -363 -60 -45 -201 -140 -209 -140 -2 0 -31 -15
-65 -34 -79 -45 -101 -52 -101 -32 0 9 5 16 10 16 6 0 44 33 85 74 83 82 118
146 113 210 -2 32 4 48 36 90 48 64 190 304 223 375 28 61 27 72 -21 175 -49
107 -55 125 -99 316 -28 117 -43 188 -52 240 -18 100 -70 325 -92 395 -39 122
-92 186 -193 232 -79 37 -190 77 -195 71 -2 -3 -78 -159 -233 -480 -45 -92
-84 -178 -87 -191 -4 -14 -29 -49 -56 -78 -27 -29 -49 -56 -49 -60 0 -3 -12
-19 -27 -36 -44 -46 -108 -125 -112 -137 -2 -6 -14 -22 -26 -36 -51 -56 -156
-243 -186 -330 -14 -40 0 126 17 200 8 36 28 106 46 157 l32 91 -35 40 c-19
21 -65 83 -104 136 -38 54 -81 111 -95 128 l-24 31 -8 -29 c-5 -16 -6 -68 -2
-115 3 -47 3 -96 -1 -109 -7 -21 -11 -18 -72 46 -36 38 -111 116 -166 173
l-101 105 41 13 c45 15 63 33 121 118 24 35 37 64 32 70 -16 19 -60 139 -60
162 0 26 -1 27 -55 12 -71 -20 -162 -94 -195 -159 -19 -38 -55 -165 -95 -335
-31 -129 -43 -169 -67 -210 -83 -143 -114 -374 -67 -502 40 -108 108 -183 166
-183 31 0 77 24 129 66 23 19 44 34 48 34 10 0 82 -152 94 -203 17 -65 15
-112 -9 -245 -11 -64 -23 -170 -27 -234 l-7 -118 -65 33 c-303 153 -571 401
-735 682 -91 157 -181 386 -206 528 -32 182 -38 243 -39 363 0 262 71 569 183
784 73 141 127 232 148 250 3 3 24 30 46 60 48 66 179 201 248 256 27 21 57
46 66 55 18 18 133 93 189 125 19 10 37 22 40 25 6 6 67 34 160 74 99 42 101
43 155 58 105 31 167 45 290 66 72 13 401 13 471 1z m281 -2826 c-14 -14 16
-45 88 -90 68 -43 75 -51 75 -79 0 -18 -4 -45 -9 -61 -5 -16 -13 -58 -19 -94
-6 -36 -16 -100 -23 -142 -17 -103 -41 -111 -134 -48 l-41 28 -32 -29 c-18
-16 -41 -29 -51 -29 -11 0 -36 23 -60 55 -23 30 -44 55 -47 55 -4 0 -19 -11
-36 -25 -16 -14 -33 -25 -38 -25 -18 0 -31 31 -25 59 10 45 40 77 91 97 34 13
43 21 38 33 -18 44 -22 74 -14 102 14 48 135 170 190 192 21 8 55 8 47 1z"/>
<path d="M1948 3656 c-8 -7 -29 -17 -47 -21 -98 -21 -176 -87 -225 -190 -32
-66 -41 -164 -26 -257 17 -96 29 -118 30 -50 l0 52 63 0 c36 0 68 -5 75 -12 9
-9 12 -9 12 0 0 15 76 16 119 1 22 -8 40 -8 59 -1 15 6 51 14 80 17 50 7 52 6
52 -17 1 -22 1 -22 13 -3 13 22 30 29 65 27 12 -1 22 3 22 8 0 6 5 10 10 10 6
0 10 -26 10 -59 0 -103 17 -75 24 38 6 97 4 114 -15 157 -11 27 -29 76 -40
110 -27 88 -101 149 -206 169 -19 4 -33 13 -33 21 0 18 -24 18 -42 0z"/>
<path d="M2169 3148 c12 -17 10 -18 -32 -18 -55 0 -75 -7 -87 -30 -9 -17 -6
-17 42 2 38 14 58 17 73 10 18 -8 21 -7 20 9 -1 11 -8 25 -15 32 -12 10 -12 9
-1 -5z"/>
<path d="M1793 3118 c-35 -17 -28 -23 30 -24 28 0 62 -4 75 -8 18 -7 21 -5 16
7 -6 16 -55 38 -83 36 -9 0 -26 -5 -38 -11z"/>
</g>
</svg>