<svg width="430" height="47" viewBox="0 0 430 47" fill="none" xmlns="http://www.w3.org/2000/svg">
<path d="M0 45.7074V0.616487H19.4631C22.8097 0.616487 25.7379 1.22563 28.2479 2.4439C30.7578 3.66218 32.71 5.4162 34.1044 7.70598C35.4988 9.99575 36.196 12.7405 36.196 15.9404C36.196 19.1695 35.4768 21.8923 34.0384 24.1087C32.6146 26.3251 30.611 27.9984 28.0277 29.1286C25.459 30.2588 22.4574 30.8239 19.0227 30.8239H7.39773V21.3125H16.5568C17.9953 21.3125 19.2209 21.1364 20.2337 20.7841C21.2611 20.4171 22.0464 19.8374 22.5895 19.0448C23.1473 18.2521 23.4261 17.2173 23.4261 15.9404C23.4261 14.6487 23.1473 13.5992 22.5895 12.7919C22.0464 11.9699 21.2611 11.3681 20.2337 10.9865C19.2209 10.5902 17.9953 10.3921 16.5568 10.3921H12.2415V45.7074H0ZM26.4205 25.0114L37.6932 45.7074H24.3949L13.3864 25.0114H26.4205ZM53.6555 0.616487V45.7074H41.4141V0.616487H53.6555ZM76.8065 45.7074H59.457V0.616487H76.6303C81.2686 0.616487 85.2757 1.51919 88.6516 3.32458C92.0423 5.1153 94.6549 7.69864 96.4897 11.0746C98.3391 14.4359 99.2639 18.465 99.2639 23.1619C99.2639 27.8589 98.3465 31.8954 96.5117 35.2713C94.677 38.6326 92.079 41.2159 88.7177 43.0213C85.3564 44.812 81.386 45.7074 76.8065 45.7074ZM71.6985 35.3154H76.3661C78.5972 35.3154 80.498 34.9557 82.0685 34.2365C83.6538 33.5173 84.8574 32.277 85.6793 30.5156C86.516 28.7543 86.9343 26.303 86.9343 23.1619C86.9343 20.0208 86.5086 17.5696 85.6573 15.8082C84.8207 14.0469 83.5877 12.8066 81.9585 12.0874C80.3439 11.3681 78.3623 11.0085 76.0139 11.0085H71.6985V35.3154ZM117.169 0.616487V45.7074H104.928V0.616487H117.169ZM161.985 0.616487V45.7074H151.769L135.476 22.0171H135.212V45.7074H122.971V0.616487H133.363L149.391 24.2188H149.743V0.616487H161.985ZM197.058 15.5C196.867 14.7221 196.566 14.0395 196.155 13.4524C195.744 12.8506 195.231 12.3442 194.614 11.9333C194.012 11.5076 193.308 11.192 192.501 10.9865C191.708 10.7663 190.835 10.6563 189.881 10.6563C187.826 10.6563 186.072 11.148 184.618 12.1314C183.18 13.1148 182.079 14.5313 181.316 16.3807C180.567 18.2301 180.193 20.4612 180.193 23.0739C180.193 25.7159 180.553 27.9763 181.272 29.8551C181.991 31.7339 183.063 33.1724 184.486 34.1705C185.91 35.1686 187.679 35.6676 189.792 35.6676C191.657 35.6676 193.205 35.3961 194.438 34.853C195.686 34.3099 196.618 33.5393 197.234 32.5412C197.851 31.5431 198.159 30.3689 198.159 29.0185L200.273 29.2386H189.969V20.5199H209.96V26.7727C209.96 30.8826 209.087 34.398 207.34 37.3189C205.608 40.2252 203.215 42.4562 200.162 44.0121C197.124 45.5533 193.638 46.3239 189.704 46.3239C185.316 46.3239 181.463 45.3918 178.145 43.5277C174.828 41.6636 172.238 39.0069 170.373 35.5575C168.524 32.1082 167.599 28.0057 167.599 23.25C167.599 19.5218 168.164 16.2192 169.295 13.3423C170.439 10.4654 172.025 8.03623 174.05 6.0547C176.076 4.05849 178.417 2.55399 181.074 1.5412C183.73 0.51374 186.578 9.41753e-06 189.616 9.41753e-06C192.288 9.41753e-06 194.768 0.381639 197.058 1.1449C199.363 1.89348 201.395 2.96497 203.157 4.35938C204.933 5.73912 206.364 7.37572 207.45 9.26919C208.536 11.1627 209.197 13.2396 209.432 15.5H197.058ZM270.116 17.5256H257.699C257.61 16.4981 257.376 15.5661 256.994 14.7294C256.627 13.8928 256.113 13.1735 255.453 12.5717C254.807 11.9553 254.022 11.4856 253.097 11.1627C252.172 10.8251 251.123 10.6563 249.949 10.6563C247.894 10.6563 246.154 11.1553 244.73 12.1534C243.321 13.1515 242.25 14.5826 241.516 16.4467C240.797 18.3109 240.437 20.5493 240.437 23.1619C240.437 25.9214 240.804 28.2332 241.538 30.0973C242.287 31.9467 243.365 33.3412 244.775 34.2806C246.184 35.2053 247.879 35.6676 249.86 35.6676C250.991 35.6676 252.003 35.5282 252.899 35.2493C253.794 34.9557 254.572 34.5374 255.233 33.9943C255.893 33.4512 256.429 32.7981 256.84 32.0348C257.266 31.2569 257.552 30.3835 257.699 29.4148L270.116 29.5029C269.969 31.411 269.434 33.3558 268.509 35.3374C267.584 37.3042 266.27 39.1243 264.568 40.7976C262.88 42.4562 260.788 43.7919 258.293 44.8047C255.798 45.8175 252.899 46.3239 249.596 46.3239C245.457 46.3239 241.743 45.4359 238.456 43.6598C235.182 41.8838 232.592 39.2711 230.684 35.8217C228.79 32.3724 227.843 28.1525 227.843 23.1619C227.843 18.1421 228.812 13.9148 230.75 10.4801C232.687 7.03079 235.3 4.42544 238.588 2.66407C241.876 0.88803 245.545 9.41753e-06 249.596 9.41753e-06C252.444 9.41753e-06 255.064 0.388977 257.456 1.16691C259.849 1.94485 261.948 3.0824 263.753 4.57955C265.559 6.06204 267.012 7.88945 268.113 10.0618C269.213 12.2341 269.881 14.7221 270.116 17.5256ZM287.911 0.616487V45.7074H275.67V0.616487H287.911ZM292.48 10.4801V0.616487H331.67V10.4801H318.108V45.7074H306.042V10.4801H292.48ZM348.519 0.616487V45.7074H336.277V0.616487H348.519ZM354.32 45.7074V0.616487H386.817V10.4801H366.562V18.2301H385.144V28.0938H366.562V35.8438H386.729V45.7074H354.32ZM417.195 14.7074C417.078 13.2396 416.528 12.0947 415.544 11.2727C414.575 10.4508 413.1 10.0398 411.119 10.0398C409.856 10.0398 408.822 10.1939 408.014 10.5021C407.222 10.7957 406.635 11.1993 406.253 11.7131C405.871 12.2268 405.673 12.8139 405.659 13.4744C405.629 14.0175 405.725 14.5092 405.945 14.9496C406.18 15.3752 406.547 15.7642 407.046 16.1165C407.545 16.4541 408.183 16.7623 408.961 17.0412C409.739 17.3201 410.664 17.5696 411.735 17.7898L415.434 18.5824C417.929 19.1108 420.065 19.808 421.841 20.674C423.617 21.54 425.07 22.5601 426.2 23.7344C427.331 24.894 428.16 26.2003 428.688 27.6534C429.231 29.1065 429.51 30.6918 429.525 32.4091C429.51 35.3741 428.769 37.884 427.301 39.9389C425.834 41.9939 423.735 43.5571 421.004 44.6286C418.289 45.7001 415.023 46.2358 411.207 46.2358C407.288 46.2358 403.868 45.656 400.947 44.4965C398.041 43.3369 395.78 41.5535 394.166 39.1463C392.566 36.7244 391.758 33.6274 391.744 29.8551H403.369C403.442 31.2349 403.787 32.3944 404.404 33.3338C405.02 34.2732 405.886 34.9851 407.002 35.4695C408.132 35.9538 409.475 36.196 411.031 36.196C412.337 36.196 413.431 36.0346 414.311 35.7117C415.192 35.3887 415.86 34.9411 416.315 34.3686C416.77 33.7962 417.005 33.143 417.019 32.4091C417.005 31.7192 416.777 31.1174 416.337 30.6037C415.911 30.0753 415.207 29.6056 414.223 29.1946C413.24 28.7689 411.911 28.3726 410.238 28.0057L405.747 27.0369C401.754 26.1709 398.606 24.7252 396.301 22.6996C394.012 20.6593 392.874 17.8779 392.889 14.3551C392.874 11.4929 393.637 8.9903 395.178 6.84731C396.734 4.68964 398.885 3.00901 401.629 1.80541C404.389 0.601809 407.552 9.41753e-06 411.119 9.41753e-06C414.759 9.41753e-06 417.907 0.609148 420.564 1.82742C423.221 3.0457 425.268 4.76303 426.707 6.97942C428.16 9.18112 428.894 11.7571 428.909 14.7074H417.195Z" fill="white"/>
</svg>
